<?xml version="1.0" encoding="UTF-8" standalone="no"?><!DOCTYPE svg PUBLIC "-//W3C//DTD SVG 1.1//EN" "http://www.w3.org/Graphics/SVG/1.1/DTD/svg11.dtd"><svg width="100%" height="100%" viewBox="0 0 21 21" version="1.1" xmlns="http://www.w3.org/2000/svg" xmlns:xlink="http://www.w3.org/1999/xlink" xml:space="preserve" xmlns:serif="http://www.serif.com/" style="fill-rule:evenodd;clip-rule:evenodd;stroke-linejoin:round;stroke-miterlimit:1.5;"><g><path d="M10.882,0.098c5.519,0 10,4.481 10,10c0,5.519 -4.481,10 -10,10c-5.519,0 -10,-4.481 -10,-10c0,-5.519 4.481,-10 10,-10Zm0,1.25c-4.829,0 -8.75,3.921 -8.75,8.75c0,4.829 3.921,8.75 8.75,8.75c4.83,0 8.75,-3.921 8.75,-8.75c0,-4.829 -3.92,-8.75 -8.75,-8.75Z" style="fill:#4f4f4f;"/><path d="M1.954,10.098l17.857,0" style="fill:none;stroke:#4f4f4f;stroke-width:1.25px;"/><path d="M10.882,0.098c1.96,0 3.551,4.481 3.551,10c0,5.519 -1.591,10 -3.551,10c-1.96,0 -3.551,-4.481 -3.551,-10c0,-5.519 1.591,-10 3.551,-10Zm0,1.25c-0.153,0 -0.257,0.149 -0.39,0.301c-0.21,0.239 -0.401,0.553 -0.581,0.924c-0.822,1.697 -1.33,4.439 -1.33,7.525c0,3.086 0.508,5.828 1.33,7.525c0.18,0.371 0.371,0.685 0.581,0.924c0.133,0.153 0.237,0.301 0.39,0.301c0.153,0 0.257,-0.148 0.391,-0.301c0.21,-0.239 0.401,-0.553 0.581,-0.924c0.821,-1.697 1.329,-4.439 1.329,-7.525c0,-3.086 -0.508,-5.828 -1.329,-7.525c-0.18,-0.371 -0.371,-0.685 -0.581,-0.924c-0.134,-0.152 -0.238,-0.301 -0.391,-0.301Z" style="fill:#4f4f4f;"/></g></svg>