<?xml version="1.0" encoding="UTF-8" standalone="no"?><!DOCTYPE svg PUBLIC "-//W3C//DTD SVG 1.1//EN" "http://www.w3.org/Graphics/SVG/1.1/DTD/svg11.dtd"><svg width="100%" height="100%" viewBox="0 0 20 21" version="1.1" xmlns="http://www.w3.org/2000/svg" xmlns:xlink="http://www.w3.org/1999/xlink" xml:space="preserve" xmlns:serif="http://www.serif.com/" style="fill-rule:evenodd;clip-rule:evenodd;stroke-linejoin:round;stroke-miterlimit:1.5;"><g><path d="M10.231,0.554c5.378,0 9.745,4.367 9.745,9.745c-0,5.378 -4.367,9.744 -9.745,9.744c-5.378,0 -9.744,-4.366 -9.744,-9.744c0,-5.378 4.366,-9.745 9.744,-9.745Zm0,1c-4.826,0 -8.744,3.919 -8.744,8.745c0,4.826 3.918,8.744 8.744,8.744c4.827,0 8.745,-3.918 8.745,-8.744c-0,-4.826 -3.918,-8.745 -8.745,-8.745Z" style="fill:#4f4f4f;"/><path d="M2.575,5.657l15.313,-0" style="fill:none;stroke:#4f4f4f;stroke-width:1px;"/><path d="M2.575,14.941l15.313,0" style="fill:none;stroke:#4f4f4f;stroke-width:1px;"/><path d="M1.531,10.299l17.401,-0" style="fill:none;stroke:#4f4f4f;stroke-width:1px;"/><path d="M10.231,0.554c3.249,0 5.887,4.367 5.887,9.745c-0,5.378 -2.638,9.744 -5.887,9.744c-3.249,0 -5.886,-4.366 -5.886,-9.744c-0,-5.378 2.637,-9.745 5.886,-9.745Zm0,1c-1.019,0 -1.939,0.59 -2.703,1.517c-1.342,1.629 -2.183,4.266 -2.183,7.228c-0,2.962 0.841,5.599 2.183,7.227c0.764,0.928 1.684,1.517 2.703,1.517c1.02,0 1.94,-0.589 2.704,-1.517c1.342,-1.628 2.183,-4.265 2.183,-7.227c-0,-2.962 -0.841,-5.599 -2.183,-7.228c-0.764,-0.927 -1.684,-1.517 -2.704,-1.517Z" style="fill:#4f4f4f;"/><path d="M10.231,1.105l0,18.316" style="fill:none;stroke:#4f4f4f;stroke-width:1px;"/></g></svg>